<svg width="396" height="68" viewBox="0 0 396 68" fill="none" xmlns="http://www.w3.org/2000/svg">
<g clip-path="url(#clip0_1084_317)">
<path d="M8.74183 47.7032V32.5065C8.74183 31.3533 9.70169 30.3935 10.9514 30.3935H41.609L43.5867 21.7483H12.7745C11.3315 21.7483 9.99158 22.3216 9.02527 23.2879L1.53964 30.78C0.483152 31.8365 0 33.1829 0 34.6195V67.1195H8.74183V56.445H34.9222L36.9257 47.7032H8.74183Z" fill="white"/>
<path d="M76.808 27.5783L69.3159 20.0862C68.3561 19.1263 67.0097 18.553 65.5731 18.553H44.1727L42.195 27.1982H67.3962C68.646 27.1982 69.7025 28.158 69.7025 29.3112V42.2983C69.7025 43.548 68.7426 44.5079 67.5895 44.5079H37.5117L35.5146 53.2497H65.4765C66.9195 53.2497 68.2594 52.7666 69.3159 51.7101L76.808 44.218C77.7679 43.2581 78.3412 41.9118 78.3412 40.4687V31.4177C78.3412 29.9747 77.8581 28.6347 76.8016 27.5783" fill="white"/>
<path d="M131.92 67.229V31.5982C131.92 30.1616 132.403 28.8153 133.46 27.7588L140.952 20.2667C141.912 19.3068 143.258 18.7271 144.701 18.7271H167.944V27.3722H142.878C141.628 27.3722 140.668 28.3321 140.668 29.4852V67.229H131.926H131.92Z" fill="white"/>
<path d="M234.329 67.229C232.886 67.229 231.546 66.6556 230.586 65.6958L223.094 58.2037C222.037 57.1472 221.554 55.8008 221.554 54.3642V0H230.296V56.4708C230.296 57.6239 231.256 58.5838 232.506 58.5838H242.014V67.229H234.329Z" fill="white"/>
<path d="M259.942 67.229C258.499 67.229 257.159 66.6556 256.199 65.6958L248.707 58.2037C247.651 57.1472 247.167 55.8008 247.167 54.3642V0H255.909V56.4708C255.909 57.6239 256.869 58.5838 258.119 58.5838H267.627V67.229H259.942Z" fill="white"/>
<path d="M387.855 63.9565H384.086V62.9H387.855V63.9565ZM385.452 65.5541C385.452 65.4253 385.51 65.2964 385.594 65.1998L386.522 64.2593V67.3579H385.452V65.5541ZM391.965 64.9421C392.094 65.071 392.165 65.2449 392.165 65.4253V67.3579H391.095V65.5412L389.511 63.9565V67.3579H388.441V64.182C388.441 64.0853 388.486 64.008 388.544 63.95L389.459 63.0353C389.543 62.9515 389.646 62.9064 389.755 62.9064C389.865 62.9064 389.968 62.9515 390.045 63.0353L391.959 64.9486L391.965 64.9421ZM394.948 63.9436C395.006 64.0016 395.051 64.0853 395.051 64.1755V67.3514H393.981V63.95L392.893 65.0387L392.152 64.3108L393.44 63.0224C393.524 62.9387 393.627 62.8936 393.737 62.8936C393.846 62.8936 393.949 62.9387 394.033 63.0224L394.948 63.9372V63.9436Z" fill="white"/>
<path d="M125.227 27.8617L117.735 20.3696C116.775 19.4098 116.195 18.8364 114.758 18.8364H83.4502V27.4816H115.815C117.065 27.4816 118.025 28.4415 118.025 29.5946V37.8984H93.3902C92.2693 37.8984 91.2257 38.3493 90.4784 39.0966L88.1851 41.3899L84.6484 44.9266C83.8238 45.7512 83.4502 46.7948 83.4502 47.9157V57.3984C83.4502 58.5193 83.9011 59.5629 84.6484 60.3102L90.4784 66.1402C91.303 66.9648 92.3466 67.3384 93.4675 67.3384H109.476L109.869 66.7715L115.718 59.273H93.751C92.6881 59.273 91.7991 58.384 91.7991 57.2373V48.3667C91.7991 45.8221 94.4596 45.603 95.1425 45.5837H118.031V67.332H126.773V31.7011C126.773 30.2581 126.29 28.9182 125.233 27.8617" fill="white"/>
<path d="M214.867 27.9132L207.375 20.4211C206.415 19.4613 205.836 18.8879 204.399 18.8879H173.091V27.5331H205.456C206.705 27.5331 207.665 28.493 207.665 29.6461V37.9499H183.031C181.91 37.9499 180.866 38.4008 180.119 39.1481L177.826 41.4415L174.289 44.9781C173.464 45.8027 173.091 46.8463 173.091 47.9672V57.4499C173.091 58.5708 173.542 59.6144 174.289 60.3617L180.119 66.1917C180.944 67.0163 181.987 67.3899 183.108 67.3899H199.117L199.51 66.823L205.359 59.3245H183.392C182.329 59.3245 181.44 58.4355 181.44 57.2888V48.4182C181.44 45.8736 184.1 45.6545 184.783 45.6352H207.672V67.3835H216.413V31.7591C216.413 30.3161 215.93 28.9761 214.874 27.9197" fill="white"/>
<path d="M314.558 27.9132L307.066 20.4211C306.106 19.4613 305.526 18.8879 304.089 18.8879H272.781V27.5331H305.146C306.396 27.5331 307.356 28.493 307.356 29.6461V37.9499H282.721C281.6 37.9499 280.557 38.4008 279.809 39.1481L277.516 41.4415L273.979 44.9781C273.155 45.8027 272.781 46.8463 272.781 47.9672V57.4499C272.781 58.5708 273.232 59.6144 273.979 60.3617L279.809 66.1917C280.634 67.0163 281.678 67.3899 282.799 67.3899H298.807L299.2 66.823L305.049 59.3245H283.082C282.019 59.3245 281.13 58.4355 281.13 57.2888V48.4182C281.13 45.8736 283.791 45.6545 284.474 45.6352H307.362V67.3835H316.104V31.7591C316.104 30.3161 315.621 28.9761 314.564 27.9197" fill="white"/>
<path d="M369.347 43.0715L378.939 18.7593H370.075L362.937 36.8549C362.583 37.7568 361.719 38.3495 360.766 38.3495H345.891C344.938 38.3495 344.081 37.7568 343.72 36.8549L336.583 18.7593H327.725L336.853 41.8926C337.079 42.4595 336.666 43.0715 336.067 43.0715H330.83L321.238 67.3837H330.096L337.369 48.9015C337.794 47.8192 338.825 47.1106 339.965 47.1106H360.186C361.333 47.1106 362.357 47.8192 362.782 48.9015L370.055 67.3837H378.92L369.327 43.0715H369.347Z" fill="white"/>
</g>
<defs>
<clipPath id="clip0_1084_317">
<rect width="395.051" height="67.39" fill="white"/>
</clipPath>
</defs>
</svg>
