<svg width="46" height="25" viewBox="0 0 46 25" fill="none" xmlns="http://www.w3.org/2000/svg">
<g clip-path="url(#clip0_1084_371)">
<path d="M4.45632 14.9591V7.16048C4.45632 6.56873 4.94563 6.07615 5.58272 6.07615H21.211L22.2192 1.63965H6.51208C5.77647 1.63965 5.09013 1.93387 4.60082 2.42976L0.784865 6.2745C0.246296 6.81667 0 7.5076 0 8.24481V24.923H4.45632V19.4452H17.8023L18.8236 14.9591H4.45632Z" fill="white"/>
<path d="M38.6294 4.63155L34.8101 0.786801C34.3208 0.294224 33.6345 0 32.9022 0H21.9929L20.9847 4.4365H33.8315C34.4686 4.4365 35.0072 4.92908 35.0072 5.52083V12.1855C35.0072 12.8268 34.5179 13.3194 33.93 13.3194H18.6005L17.5825 17.8055H32.8562C33.5918 17.8055 34.2748 17.5576 34.8134 17.0154L38.6327 13.1707C39.122 12.6781 39.4142 11.9871 39.4142 11.2466V6.60186C39.4142 5.86134 39.1679 5.17371 38.6294 4.63155Z" fill="white"/>
<path d="M41.3352 0.591726H39.4141V0.0495605H41.3352V0.591726ZM40.1103 1.41159C40.1103 1.34547 40.1398 1.27935 40.1825 1.22976L40.6554 0.747103V2.33723H40.1103V1.41159ZM43.4303 1.09753C43.496 1.16364 43.5321 1.2529 43.5321 1.34547V2.33723H42.987V1.40497L42.1792 0.591726V2.33723H41.634V0.707432C41.634 0.657844 41.657 0.618173 41.6866 0.58842L42.1529 0.118984C42.1956 0.0760076 42.2481 0.0528664 42.3039 0.0528664C42.3598 0.0528664 42.4123 0.0760076 42.4517 0.118984L43.4271 1.10083L43.4303 1.09753ZM44.9508 0.585114C44.9804 0.614867 45.0034 0.657844 45.0034 0.704126V2.33723H44.4582V0.591726L43.9032 1.15042L43.5256 0.776856L44.1824 0.115678C44.2251 0.0727018 44.2776 0.0495605 44.3334 0.0495605C44.3893 0.0495605 44.4418 0.0727018 44.4812 0.115678L44.9475 0.585114H44.9508Z" fill="white"/>
</g>
<defs>
<clipPath id="clip0_1084_371">
<rect width="46" height="25" fill="white"/>
</clipPath>
</defs>
</svg>
