<svg width="27" height="27" viewBox="0 0 27 27" fill="none" xmlns="http://www.w3.org/2000/svg">
<g clip-path="url(#clip0_1958_211)">
<path d="M13.5 0C6.04323 0 0 6.04323 0 13.5C0 20.9568 6.04323 27 13.5 27C20.9568 27 27 20.9568 27 13.5C27 6.04323 20.9568 0 13.5 0ZM16.9544 20.4406L13.361 14.2584H11.1296V20.4406H9.07677V5.92809H14.2782C15.7513 5.92809 16.871 6.28147 17.6374 6.98824C18.4037 7.695 18.7888 8.72735 18.7888 10.0813C18.7888 11.2129 18.5228 12.1182 17.9868 12.7932C17.4507 13.4722 16.6606 13.9129 15.6203 14.1234L19.3487 20.4406H16.9584H16.9544Z" fill="black"/>
<path d="M16.6878 10.0811C16.6878 9.29093 16.4813 8.72314 16.0724 8.37373C15.6634 8.02432 14.9884 7.84961 14.0513 7.84961H11.125V12.3364H14.0513C14.9884 12.3364 15.6634 12.1577 16.0724 11.8003C16.4813 11.443 16.6878 10.8712 16.6878 10.0811Z" fill="black"/>
</g>
<defs>
<clipPath id="clip0_1958_211">
<rect width="27" height="27" fill="white"/>
</clipPath>
</defs>
</svg>
